<svg width="24" height="24" viewBox="0 0 24 24" xmlns="http://www.w3.org/2000/svg"><path d="M20 2.006H4A2 2 0 0 0 2.01 4.01L2 20.057c0 1.103.9 2.006 2 2.006h16c1.1 0 2-.903 2-2.006V4.01a2.01 2.01 0 0 0-2-2.004zm-2.29 7.35c-.06 4.633-3.02 7.802-7.42 8.002-1.82.08-3.14-.5-4.28-1.233 1.34.21 3.01-.32 3.9-1.093-1.32-.13-2.1-.802-2.46-1.885.38.07.78.05 1.14-.03-1.19-.4-2.04-1.134-2.08-2.678.33.15.68.29 1.14.32-.9-.5-1.55-2.357-.8-3.58 1.32 1.454 2.91 2.637 5.52 2.798-.65-2.808 3.06-4.332 4.61-2.447.66-.13 1.19-.38 1.7-.65-.21.65-.62 1.102-1.12 1.473.54-.07 1.03-.21 1.44-.41-.25.53-.81 1.012-1.29 1.413z" fill="#BFBEC0" fill-rule="evenodd"/></svg>