<svg xmlns="http://www.w3.org/2000/svg" width="40" height="40"><path d="M19.999 5.917c-7.974 0-14.438 6.465-14.438 14.44 0 6.38 4.137 11.791 9.874 13.701.723.132.986-.314.986-.696 0-.343-.012-1.251-.02-2.456-4.016.872-4.863-1.936-4.863-1.936-.657-1.667-1.604-2.111-1.604-2.111-1.31-.896.1-.879.1-.879 1.449.103 2.211 1.489 2.211 1.489 1.288 2.206 3.38 1.569 4.203 1.2.13-.934.503-1.57.916-1.93-3.206-.365-6.577-1.604-6.577-7.137 0-1.576.563-2.865 1.486-3.875-.148-.365-.644-1.833.141-3.821 0 0 1.213-.389 3.972 1.48A13.83 13.83 0 0 1 20 12.9a13.85 13.85 0 0 1 3.615.486c2.757-1.869 3.967-1.48 3.967-1.48.788 1.988.293 3.456.144 3.821.925 1.01 1.484 2.299 1.484 3.875 0 5.547-3.376 6.767-6.593 7.125.519.446.98 1.327.98 2.674 0 1.93-.017 3.487-.017 3.96 0 .387.26.836.993.696 5.733-1.914 9.866-7.322 9.866-13.7 0-7.975-6.465-14.44-14.44-14.44" fill-rule="evenodd" fill="#656565"/></svg>