<svg xmlns="http://www.w3.org/2000/svg" height="40" viewBox="0 0 20 20" width="40"><path d="M6.994 4.444l-.972-.972A7.089 7.089 0 0 0 3.22 8.81h1.36a5.743 5.743 0 0 1 2.414-4.366zM15.42 8.81h1.36a7.132 7.132 0 0 0-2.802-5.338l-.966.972A5.777 5.777 0 0 1 15.42 8.81zm-1.34.34c0-2.088-1.115-3.835-3.06-4.298V4.39c0-.564-.456-1.02-1.02-1.02-.564 0-1.02.456-1.02 1.02v.462c-1.952.463-3.06 2.204-3.06 4.298v3.4l-1.36 1.36v.68h10.88v-.68l-1.36-1.36zM10 16.63c.095 0 .184-.007.272-.027a1.38 1.38 0 0 0 .98-.803c.067-.163.101-.34.101-.53h-2.72A1.37 1.37 0 0 0 10 16.63z" fill="#656565"/></svg>