<svg xmlns="http://www.w3.org/2000/svg" width="40" height="40"><g fill="#656565"><path d="M10.31 9.976c-.2 0-.334.134-.334.334v3.342c0 .2.134.334.334.334 8.487 0 15.704 7.217 15.704 15.704 0 .2.134.334.334.334h3.342c.2 0 .334-.134.334-.334 0-10.893-8.821-19.714-19.714-19.714z"/><path d="M10.31 15.99c-.2 0-.334.134-.334.335v3.34c0 .201.134.335.334.335 5.346 0 9.69 4.344 9.69 9.69 0 .2.134.334.334.334h3.341c.2 0 .334-.134.334-.334 0-7.552-6.147-13.7-13.699-13.7z"/><path d="M12.983 24.01a2.995 2.995 0 0 0-3.007 3.007 2.995 2.995 0 0 0 3.007 3.007 2.995 2.995 0 0 0 3.008-3.007 2.995 2.995 0 0 0-3.008-3.007z"/></g></svg>