<svg xmlns="http://www.w3.org/2000/svg" width="40" height="40"><path d="M32.069 18.461c-.162-1.134-1.377-1.944-2.511-1.539-.486.162-1.134-.081-1.377-.567-.243-.567-.567-1.053-.891-1.539-.324-.486-.243-1.134.162-1.458.405-.405.648-.972.648-1.539s-.324-1.134-.729-1.458c-.81-.648-1.701-1.134-2.592-1.539-.324-.081-.567-.162-.81-.162-.891 0-1.701.648-1.863 1.539-.081.567-.567.972-1.215.891a6.564 6.564 0 0 0-1.782 0c-.567.081-1.134-.324-1.215-.891-.162-.891-.972-1.539-1.863-1.539-.243 0-.486.081-.729.162-.972.405-1.863.891-2.673 1.539-.405.324-.729.891-.729 1.458s.243 1.134.648 1.458c.486.405.567.972.162 1.458a15.046 15.046 0 0 0-.891 1.539c-.243.486-.81.81-1.377.567-.243-.081-.405-.081-.648-.081-.972 0-1.782.729-1.863 1.701-.081.486-.081 1.053-.081 1.539s0 1.053.081 1.539c.162 1.134 1.377 1.944 2.511 1.539.486-.162 1.134.081 1.377.648.243.567.567 1.053.891 1.539.324.486.243 1.134-.162 1.458-.405.324-.648.891-.648 1.458s.324 1.134.729 1.458c.81.648 1.701 1.134 2.592 1.539.243.081.486.162.729.162.891 0 1.701-.648 1.863-1.539.081-.567.567-.972 1.215-.891a6.564 6.564 0 0 0 1.782 0c.567-.081 1.134.324 1.215.891.162.891.972 1.539 1.863 1.539.243 0 .486-.081.729-.162.891-.405 1.782-.891 2.592-1.539.486-.324.729-.891.729-1.458s-.243-1.134-.648-1.458c-.405-.324-.486-.972-.162-1.458.324-.486.648-1.053.891-1.539s.81-.81 1.377-.567c.243.081.405.081.648.081.972 0 1.782-.729 1.863-1.701.243-.486.243-1.053.243-1.539s0-1.053-.081-1.539zM24.05 20A4.01 4.01 0 0 1 20 24.05 4.01 4.01 0 0 1 15.95 20 4.01 4.01 0 0 1 20 15.95 4.01 4.01 0 0 1 24.05 20z" fill="#656565"/></svg>