<svg xmlns="http://www.w3.org/2000/svg" viewBox="0 0 30 30" fill="#808080"><path d="M27.5 5h-25C1.1 5 0 6.1 0 7.5v15C0 23.9 1.1 25 2.5 25h25c1.4 0 2.5-1.1 2.5-2.5v-15C30 6.1 28.9 5 27.5 5zM10.8 15.9l-7 6c-.1.1-.2.1-.3.1-.1 0-.3-.1-.4-.2-.2-.2-.2-.5.1-.7l7-6c.2-.2.5-.2.7.1.2.2.1.5-.1.7zm3.9.1c-.7 0-1.5-.2-2-.6L3.2 8.9c-.2-.1-.3-.5-.1-.7.1-.2.4-.3.7-.1l9.5 6.5c.8.6 2.1.6 2.9 0l10-6.5c.2-.2.5-.1.7.1s.1.5-.1.7l-10 6.5c-.6.4-1.3.6-2.1.6zm12.2 5.8c-.1.1-.2.2-.4.2-.1 0-.2 0-.3-.1l-7-6c-.2-.2-.2-.5-.1-.7s.5-.2.7-.1l7 6c.2.2.3.5.1.7z"/></svg>
