<svg xmlns="http://www.w3.org/2000/svg" viewBox="0 0 30 30" fill="#808080"><path d="M29 18.4l-2.8-2.2c0-.3.1-.8.1-1.2s0-.9-.1-1.2l2.8-2.2c.5-.4.6-1 .3-1.6l-2.9-5c-.3-.5-.9-.8-1.5-.5l-3.3 1.3c-.7-.5-1.3-.9-2.1-1.2L19.1 1c-.1-.6-.6-1-1.2-1h-5.8c-.6 0-1.1.4-1.2 1l-.5 3.6c-.7.3-1.4.7-2 1.2L5 4.5c-.5-.3-1.2 0-1.5.5L.6 10c-.3.5-.2 1.2.3 1.6l2.8 2.2c0 .5-.1.8-.1 1.2s0 .7.1 1.2L1 18.4c-.5.4-.6 1-.3 1.6l2.9 5c.3.5.9.8 1.5.5l3.3-1.3c.7.5 1.3.9 2.1 1.2L11 29c.1.6.6 1 1.2 1H18c.6 0 1.1-.4 1.2-1l.5-3.6c.7-.3 1.4-.7 2-1.2l3.3 1.3c.1.1.3.1.4.1.4 0 .8-.2 1-.6l2.9-5c.3-.6.2-1.2-.3-1.6zM20.1 15c0 2.8-2.2 5-5 5s-5-2.2-5-5 2.2-5 5-5 5 2.2 5 5z"/></svg>
