<?xml version="1.0" encoding="UTF-8" standalone="no"?>
<svg width="24px" height="24px" viewBox="0 0 24 24" version="1.1" xmlns="http://www.w3.org/2000/svg" xmlns:xlink="http://www.w3.org/1999/xlink" xmlns:sketch="http://www.bohemiancoding.com/sketch/ns">
    <g id="Page-1" stroke="none" stroke-width="1" fill="#BFBEC0" fill-rule="evenodd" sketch:type="MSPage">
        <g id="Artboard-10-Copy" sketch:type="MSArtboardGroup">
            <path d="M20,2.00560224 L4,2.00560224 C2.9,2.00560224 2.01,2.90812325 2.01,4.01120448 L2,20.0560224 C2,21.1591036 2.9,22.0616246 4,22.0616246 L20,22.0616246 C21.1,22.0616246 22,21.1591036 22,20.0560224 L22,4.01120448 C22,2.90812325 21.1,2.00560224 20,2.00560224 L20,2.00560224 Z M17.71,9.35613445 C17.65,13.9890756 14.69,17.1579272 10.29,17.3584874 C8.47,17.4387115 7.15,16.8570868 6.01,16.125042 C7.35,16.3356303 9.02,15.8041457 9.91,15.0319888 C8.59,14.9016246 7.81,14.2297479 7.45,13.1467227 C7.83,13.2169188 8.23,13.1968627 8.59,13.1166387 C7.4,12.7155182 6.55,11.9834734 6.51,10.4391597 C6.84,10.5895798 7.19,10.729972 7.65,10.760056 C6.75,10.2586555 6.1,8.40347339 6.85,7.18005602 C8.17,8.63411765 9.76,9.81742297 12.37,9.97787115 C11.72,7.17002801 15.43,5.64577031 16.98,7.53103641 C17.64,7.40067227 18.17,7.14997199 18.68,6.87921569 C18.47,7.53103641 18.06,7.98229692 17.56,8.35333333 C18.1,8.28313725 18.59,8.1427451 19,7.94218487 C18.75,8.47366947 18.19,8.95501401 17.71,9.35613445 L17.71,9.35613445 Z" id="Shape" sketch:type="MSShapeGroup"></path>
        </g>
    </g>
</svg>
