<?xml version="1.0" encoding="UTF-8" standalone="no"?>
<svg width="24px" height="24px" viewBox="0 0 24 24" version="1.1" xmlns="http://www.w3.org/2000/svg" xmlns:xlink="http://www.w3.org/1999/xlink" xmlns:sketch="http://www.bohemiancoding.com/sketch/ns">
    <g id="Page-1" stroke="none" stroke-width="1" fill="#BFBEC0" fill-rule="evenodd" sketch:type="MSPage">
        <g id="Artboard-10-Copy-2" sketch:type="MSArtboardGroup">
            <path d="M11.2,8.8892437 C11.2,7.86638655 10.57,5.86078431 9.12,5.86078431 C8.48,5.86078431 7.8,6.30201681 7.8,7.53546218 C7.8,8.71876751 8.43,10.4736695 9.77,10.4736695 C9.83,10.4836975 11.2,10.4636415 11.2,8.8892437 L11.2,8.8892437 Z M10.57,13.8430812 L10.26,13.8330532 L10.24,13.8330532 C9.98,13.8330532 9.09,13.8831933 8.42,14.1038095 C7.77,14.3444818 7,14.8258263 7,15.8085714 C7,16.8915966 8.04,18.0448179 9.96,18.0448179 C11.48,18.0448179 12.4,17.0420168 12.4,16.0692997 C12.4,15.2971429 11.94,14.8258263 10.57,13.8430812 L10.57,13.8430812 Z M20,2 L4,2 C2.9,2 2.01,2.90252101 2.01,4.00560224 L2,20.0504202 C2,21.1535014 2.9,22.0560224 4,22.0560224 L20,22.0560224 C21.1,22.0560224 22,21.1535014 22,20.0504202 L22,4.00560224 C22,2.90252101 21.1,2 20,2 L20,2 Z M9.07,19.2481793 C6.27,19.2481793 5,17.6838095 5,16.2297479 C5,15.7784874 5.14,14.6352941 6.48,13.8330532 C7.25,13.3617367 8.33,13.0508683 9.62,12.9205042 C9.43,12.6698039 9.28,12.3689636 9.28,11.9277311 C9.28,11.7672829 9.3,11.6168627 9.33,11.4664426 L8.95,11.4664426 C6.98,11.4664426 5.8,9.91210084 5.8,8.41792717 C5.8,6.68308123 7.09,4.80784314 9.91,4.80784314 L14.12,4.80784314 L13.78,5.14879552 L13.07,5.86078431 L13.01,5.92095238 L12.3,5.92095238 C12.71,6.34212885 13.2,7.04408964 13.2,8.0870028 C13.2,9.49092437 12.46,10.1828571 11.64,10.8246499 C11.48,10.944986 11.22,11.2057143 11.22,11.5466667 C11.22,11.847507 11.46,12.0480672 11.61,12.1684034 C11.74,12.2787115 11.91,12.3890196 12.08,12.5093557 C12.89,13.0809524 14,13.8531092 14,15.397423 C14,17.172381 12.71,19.2481793 9.07,19.2481793 L9.07,19.2481793 Z M19,12.0280112 L17,12.0280112 L17,14.0336134 L16,14.0336134 L16,12.0280112 L14,12.0280112 L14,11.0252101 L16,11.0252101 L16,9.01960784 L17,9.01960784 L17,11.0252101 L19,11.0252101 L19,12.0280112 L19,12.0280112 Z" id="Shape" sketch:type="MSShapeGroup"></path>
        </g>
    </g>
</svg>
