<svg width="24" height="24" viewBox="0 0 24 24" xmlns="http://www.w3.org/2000/svg"><path d="M11.2 8.89c0-1.024-.63-3.03-2.08-3.03-.64 0-1.32.442-1.32 1.675 0 1.184.63 2.94 1.97 2.94.06.01 1.43-.01 1.43-1.586zm-.63 4.953l-.31-.01h-.02c-.26 0-1.15.05-1.82.27-.65.24-1.42.723-1.42 1.706 0 1.08 1.04 2.234 2.96 2.234 1.52 0 2.44-1.003 2.44-1.976 0-.773-.46-1.244-1.83-2.227zM20 2H4a2 2 0 0 0-1.99 2.006L2 20.05c0 1.104.9 2.006 2 2.006h16c1.1 0 2-.902 2-2.006V4.006A2.01 2.01 0 0 0 20 2zM9.07 19.248c-2.8 0-4.07-1.564-4.07-3.018 0-.452.14-1.595 1.48-2.397.77-.47 1.85-.782 3.14-.912a1.55 1.55 0 0 1-.34-.99c0-.16.02-.31.05-.463h-.38c-1.97 0-3.15-1.554-3.15-3.048 0-1.736 1.29-3.61 4.11-3.61h4.21l-.34.34-.71.712-.06.06h-.71c.41.422.9 1.124.9 2.167 0 1.403-.74 2.095-1.56 2.737-.16.12-.42.38-.42.722 0 .3.24.5.39.62.13.11.3.22.47.34.81.57 1.92 1.344 1.92 2.888 0 1.775-1.29 3.85-4.93 3.85zm9.93-7.22h-2v2.006h-1v-2.006h-2v-1.003h2V9.02h1v2.005h2v1.003z" fill="#BFBEC0" fill-rule="evenodd"/></svg>