<svg width="24" height="24" viewBox="0 0 24 24" xmlns="http://www.w3.org/2000/svg"><path d="M21.617 6.9c-.11 8.535-5.58 14.373-13.71 14.742-3.362.148-5.8-.923-7.907-2.272 2.476.388 5.56-.59 7.206-2.014-2.44-.24-3.88-1.478-4.545-3.473.703.13 1.442.092 2.107-.056-2.2-.74-3.77-2.088-3.843-4.933.61.277 1.256.536 2.106.59C1.367 8.563.166 5.145 1.552 2.89c2.44 2.68 5.376 4.86 10.2 5.154-1.202-5.173 5.652-7.98 8.516-4.508 1.22-.24 2.2-.702 3.14-1.2-.387 1.2-1.145 2.032-2.07 2.715 1-.128 1.904-.387 2.662-.756-.462.98-1.497 1.866-2.383 2.605z" fill="#BAB8BC" fill-rule="evenodd"/></svg>