<?xml version="1.0" encoding="UTF-8" standalone="no"?>
<svg width="512px" height="512px" viewBox="0 0 512 512" version="1.1" xmlns="http://www.w3.org/2000/svg" xmlns:xlink="http://www.w3.org/1999/xlink" xmlns:sketch="http://www.bohemiancoding.com/sketch/ns">
    <!-- Generator: Sketch 3.3.1 (12002) - http://www.bohemiancoding.com/sketch -->
    <title>gf-logo</title>
    <desc>Created with Sketch.</desc>
    <defs></defs>
    <g id="Page-1" stroke="none" stroke-width="1" fill="none" fill-rule="evenodd" sketch:type="MSPage">
        <g id="gf-logo" sketch:type="MSArtboardGroup" fill="#FFFFFF">
            <g id="Group" sketch:type="MSLayerGroup" transform="translate(103.000000, 89.000000)">
                <path d="M50.08,32.2 L29.6,32.2 L29.6,40.6 L40.8,40.6 L40.8,51.56 L40.72,51.56 C39.68,52.12 38.56,52.52 37.44,52.84 C37.44,52.84 37.36,52.92 37.28,52.92 C37.2,52.92 37.04,52.92 36.96,53 C36.88,53 36.8,53 36.72,53.08 L36.48,53.08 C36.4,53.16 36.24,53.16 36.16,53.16 C36.08,53.24 36.08,53.24 36,53.24 C35.44,53.32 34.8,53.48 34.24,53.56 L34.08,53.56 L33.76,53.56 C33.68,53.56 33.6,53.56 33.6,53.64 L33.2,53.64 L32.96,53.64 L32.72,53.64 L32.4,53.64 C32.32,53.72 32.24,53.72 32.16,53.72 L31.6,53.72 C26.16,53.72 21.04,51.56 17.2,47.72 C14.72,45.24 12.96,42.2 12,38.84 C11.6,37.4 11.36,35.88 11.28,34.36 C11.2,33.96 11.2,33.64 11.2,33.32 C11.2,32.92 11.2,32.6 11.28,32.2 L11.28,31.32 C11.36,30.52 11.52,29.72 11.68,28.92 C11.68,28.84 11.68,28.84 11.76,28.76 C12.24,26.6 13.04,24.6 14.24,22.68 C14.24,22.6 14.32,22.44 14.4,22.36 C14.56,22.12 14.72,21.88 14.88,21.64 C14.88,21.64 14.96,21.56 15.04,21.48 C15.36,21 15.68,20.52 16.08,20.04 C16.16,20.04 16.16,19.96 16.16,19.96 C16.48,19.56 16.88,19.24 17.2,18.92 C18.24,17.8 19.44,16.84 20.72,16.04 C20.88,15.96 21.04,15.88 21.12,15.8 C24.24,13.88 27.84,12.92 31.6,12.92 L32.16,12.92 L32.32,12.92 L32.64,12.92 L32.88,12.92 C32.96,12.92 33.04,13 33.12,13 L33.6,13 L33.84,13 C33.92,13.08 34.08,13.08 34.16,13.08 L34.32,13.08 C34.4,13.08 34.56,13.16 34.64,13.16 L34.8,13.16 C35.12,13.24 35.52,13.24 35.84,13.32 C35.92,13.4 36,13.4 36,13.4 C36.16,13.4 36.24,13.4 36.32,13.48 L36.56,13.48 C36.64,13.56 36.72,13.56 36.8,13.56 C38,13.88 39.28,14.36 40.48,14.92 C41.92,15.64 43.28,16.44 44.48,17.48 L44.48,6.52 C44.48,6.52 44.48,6.52 44.4,6.52 C44.24,6.44 44.08,6.36 43.92,6.28 C43.84,6.28 43.84,6.2 43.84,6.2 C40.64,4.76 37.28,3.96 33.84,3.72 C33.6,3.64 33.36,3.64 33.12,3.64 C33.12,3.64 33.12,3.64 33.04,3.64 L32.4,3.64 L32.32,3.64 L31.6,3.64 C27.6,3.64 23.68,4.36 20.08,5.96 C16.48,7.4 13.36,9.56 10.64,12.28 C7.92,15 5.76,18.2 4.24,21.72 C2.88,24.92 2.16,28.36 1.92,31.8 L1.92,33.32 C1.92,34.28 2,35.32 2.08,36.28 C2.32,39.24 3.12,42.12 4.24,44.84 C5.76,48.44 7.92,51.56 10.64,54.28 C12.56,56.28 14.8,57.96 17.2,59.24 C18.08,59.8 19.04,60.28 20.08,60.68 L21.28,61.16 C21.6,61.24 21.84,61.4 22.16,61.48 L22.24,61.48 C25.2,62.52 28.4,63 31.6,63 L32.32,63 L32.4,63 L33.04,63 L33.12,63 C36.88,62.76 40.4,61.96 43.76,60.44 L43.84,60.36 C44,60.28 44.24,60.2 44.4,60.12 C44.56,60.04 44.72,59.96 44.8,59.88 L44.96,59.88 L45.12,59.72 C45.28,59.72 45.44,59.64 45.52,59.56 C45.6,59.48 45.68,59.48 45.76,59.4 C45.92,59.32 46,59.32 46.16,59.24 C46.24,59.16 46.32,59.16 46.4,59.08 C46.48,59 46.56,59 46.64,58.92 C46.8,58.84 46.88,58.76 46.96,58.68 C47.12,58.68 47.2,58.6 47.28,58.52 C47.36,58.52 47.44,58.44 47.52,58.36 C47.6,58.36 47.76,58.28 47.84,58.2 C47.92,58.12 47.92,58.12 48,58.12 L48,58.12 L50.08,56.68 L50.08,40.6 L50.08,32.2 Z" id="G" sketch:type="MSShapeGroup"></path>
                <path d="M169.94,62.5234375 L180.1,62.5234375 L154.34,0.4434375 L128.5,62.5234375 L138.74,62.5234375 L143.78,49.8034375 L164.9,49.8034375 L169.94,62.5234375 Z M147.14,41.4834375 L154.34,23.4034375 L161.54,41.4834375 L147.14,41.4834375 Z" id="A" sketch:type="MSShapeGroup"></path>
                <path d="M281.18,62.5234375 C286.78,62.5234375 291.98,60.8434375 295.9,57.8034375 C298.14,56.0434375 299.9,53.8834375 301.18,51.4034375 C302.46,48.6834375 303.18,45.6434375 303.18,42.3634375 L303.18,3.1634375 L293.82,3.1634375 L293.82,42.3634375 C293.82,45.8834375 292.62,48.6034375 290.22,50.4434375 C287.9,52.2034375 284.62,53.2434375 281.18,53.2434375 C277.66,53.2434375 274.38,52.2034375 272.14,50.4434375 C269.74,48.6034375 268.46,45.8834375 268.46,42.3634375 L268.46,3.1634375 L259.18,3.1634375 L259.18,42.3634375 C259.18,45.6434375 259.82,48.6834375 261.18,51.4034375 C262.38,53.8834375 264.14,56.0434375 266.46,57.8034375 C270.38,60.8434375 275.58,62.5234375 281.18,62.5234375 L281.18,62.5234375 Z" id="U" sketch:type="MSShapeGroup"></path>
                <path d="M48.88,193.243438 L48.88,131.163438 L39.52,131.163438 L39.52,169.243438 L2.24,128.363438 L2.24,190.523438 L11.52,190.523438 L11.52,152.363438 L48.88,193.243438 Z" id="N" sketch:type="MSShapeGroup"></path>
                <path d="M173.4,131.163437 L131.4,131.163437 L131.4,139.483438 L147.72,139.483438 L147.72,190.523438 L157.08,190.523438 L157.08,139.483438 L173.4,139.483438 L173.4,131.163437 Z" id="T" sketch:type="MSShapeGroup"></path>
                <path d="M273.02,139.483438 L299.42,139.483438 L299.42,131.163437 L272.94,131.163437 L263.74,131.163437 L263.74,190.523438 L273.02,190.523438 L273.02,163.723437 L294.7,163.723437 L294.7,155.323438 L273.02,155.323438 L273.02,139.483438 Z" id="F" sketch:type="MSShapeGroup"></path>
                <path d="M41.94,318.523438 L52.1,318.523438 L26.34,256.443438 L0.5,318.523438 L10.74,318.523438 L15.78,305.803437 L36.9,305.803437 L41.94,318.523438 Z M19.14,297.483437 L26.34,279.403437 L33.54,297.483437 L19.14,297.483437 Z" id="A" sketch:type="MSShapeGroup"></path>
                <path d="M176.84,301.48 C176.2,302.28 175.56,303 174.84,303.72 C171,307.56 165.88,309.72 160.44,309.72 C155,309.72 149.88,307.56 146.04,303.72 C142.2,299.88 140.04,294.76 140.04,289.32 C140.04,283.88 142.2,278.76 146.04,274.92 C149.88,271 155,268.92 160.44,268.92 C165.24,268.92 169.72,270.52 173.32,273.48 L173.32,262.52 C172.92,262.36 172.44,262.12 172.04,261.96 C168.36,260.36 164.44,259.64 160.44,259.64 C156.44,259.64 152.52,260.36 148.92,261.96 C145.32,263.4 142.2,265.56 139.48,268.28 C136.76,271 134.6,274.2 133.08,277.72 C131.56,281.4 130.76,285.32 130.76,289.32 C130.76,293.32 131.56,297.24 133.08,300.84 C134.6,304.44 136.76,307.56 139.48,310.28 C142.2,313 145.32,315.16 148.92,316.68 C152.52,318.2 156.44,319 160.44,319 C164.44,319 168.36,318.2 172.04,316.68 C173.72,315.96 175.32,315.08 176.84,314.12 L176.84,301.48 Z" id="C" sketch:type="MSShapeGroup"></path>
                <path d="M273.02,267.483438 L299.34,267.483438 L299.34,259.163437 L272.94,259.163437 L263.74,259.163437 L263.74,318.523438 L272.94,318.523438 L299.34,318.523438 L299.34,310.123438 L273.02,310.123438 L273.02,291.723437 L294.7,291.723437 L294.7,283.323438 L273.02,283.323438 L273.02,267.483438 Z" id="E" sketch:type="MSShapeGroup"></path>
            </g>
        </g>
    </g>
</svg>