<svg width="512" height="512" viewBox="0 0 512 512" xmlns="http://www.w3.org/2000/svg"><title>favicon-</title><g fill="none" fill-rule="evenodd"><rect fill="#000" x="30" y="30" width="452" height="452" rx="32"/><g fill="#FFF"><path d="M153.08 121.2H132.6v8.4h11.2v10.96h-.08c-1.04.56-2.16.96-3.28 1.28 0 0-.08.08-.16.08s-.24 0-.32.08c-.08 0-.16 0-.24.08h-.24c-.08.08-.24.08-.32.08-.08.08-.08.08-.16.08-.56.08-1.2.24-1.76.32h-.48c-.08 0-.16 0-.16.08h-1.2c-.08.08-.16.08-.24.08h-.56c-5.44 0-10.56-2.16-14.4-6-2.48-2.48-4.24-5.52-5.2-8.88-.4-1.44-.64-2.96-.72-4.48-.08-.4-.08-.72-.08-1.04 0-.4 0-.72.08-1.12v-.88c.08-.8.24-1.6.4-2.4 0-.08 0-.08.08-.16a19.12 19.12 0 0 1 2.48-6.08c0-.08.08-.24.16-.32l.48-.72.16-.16c.32-.48.64-.96 1.04-1.44.08 0 .08-.08.08-.08.32-.4.72-.72 1.04-1.04 1.04-1.12 2.24-2.08 3.52-2.88.16-.08.32-.16.4-.24 3.12-1.92 6.72-2.88 10.48-2.88h1.28c.08 0 .16.08.24.08h.72c.08.08.24.08.32.08h.16c.08 0 .24.08.32.08h.16c.32.08.72.08 1.04.16.08.08.16.08.16.08.16 0 .24 0 .32.08h.24c.08.08.16.08.24.08 1.2.32 2.48.8 3.68 1.36 1.44.72 2.8 1.52 4 2.56V95.52h-.08l-.48-.24c-.08 0-.08-.08-.08-.08-3.2-1.44-6.56-2.24-10-2.48-.24-.08-.48-.08-.72-.08h-1.52c-4 0-7.92.72-11.52 2.32-3.6 1.44-6.72 3.6-9.44 6.32a30.335 30.335 0 0 0-6.4 9.44c-1.36 3.2-2.08 6.64-2.32 10.08v1.52c0 .96.08 2 .16 2.96.24 2.96 1.04 5.84 2.16 8.56 1.52 3.6 3.68 6.72 6.4 9.44 1.92 2 4.16 3.68 6.56 4.96.88.56 1.84 1.04 2.88 1.44l1.2.48c.32.08.56.24.88.32h.08c2.96 1.04 6.16 1.52 9.36 1.52h1.52c3.76-.24 7.28-1.04 10.64-2.56l.08-.08c.16-.08.4-.16.56-.24.16-.08.32-.16.4-.24h.16l.16-.16c.16 0 .32-.08.4-.16.08-.08.16-.08.24-.16.16-.08.24-.08.4-.16.08-.08.16-.08.24-.16.08-.08.16-.08.24-.16.16-.08.24-.16.32-.24.16 0 .24-.08.32-.16.08 0 .16-.08.24-.16.08 0 .24-.08.32-.16.08-.08.08-.08.16-.08l2.08-1.44V121.2zM272.94 151.523h10.16l-25.76-62.08-25.84 62.08h10.24l5.04-12.72h21.12l5.04 12.72zm-22.8-21.04l7.2-18.08 7.2 18.08h-14.4zM384.18 151.523c5.6 0 10.8-1.68 14.72-4.72 2.24-1.76 4-3.92 5.28-6.4 1.28-2.72 2-5.76 2-9.04v-39.2h-9.36v39.2c0 3.52-1.2 6.24-3.6 8.08-2.32 1.76-5.6 2.8-9.04 2.8-3.52 0-6.8-1.04-9.04-2.8-2.4-1.84-3.68-4.56-3.68-8.08v-39.2h-9.28v39.2c0 3.28.64 6.32 2 9.04 1.2 2.48 2.96 4.64 5.28 6.4 3.92 3.04 9.12 4.72 14.72 4.72zM151.88 282.243v-62.08h-9.36v38.08l-37.28-40.88v62.16h9.28v-38.16l37.36 40.88zM276.4 220.163h-42v8.32h16.32v51.04h9.36v-51.04h16.32v-8.32zM376.02 228.483h26.4v-8.32h-35.68v59.36h9.28v-26.8h21.68v-8.4h-21.68v-15.84zM144.94 407.523h10.16l-25.76-62.08-25.84 62.08h10.24l5.04-12.72h21.12l5.04 12.72zm-22.8-21.04l7.2-18.08 7.2 18.08h-14.4zM279.84 390.48c-.64.8-1.28 1.52-2 2.24-3.84 3.84-8.96 6-14.4 6-5.44 0-10.56-2.16-14.4-6s-6-8.96-6-14.4c0-5.44 2.16-10.56 6-14.4 3.84-3.92 8.96-6 14.4-6 4.8 0 9.28 1.6 12.88 4.56v-10.96c-.4-.16-.88-.4-1.28-.56-3.68-1.6-7.6-2.32-11.6-2.32s-7.92.72-11.52 2.32c-3.6 1.44-6.72 3.6-9.44 6.32a30.335 30.335 0 0 0-6.4 9.44c-1.52 3.68-2.32 7.6-2.32 11.6s.8 7.92 2.32 11.52c1.52 3.6 3.68 6.72 6.4 9.44 2.72 2.72 5.84 4.88 9.44 6.4a29.63 29.63 0 0 0 11.52 2.32c4 0 7.92-.8 11.6-2.32 1.68-.72 3.28-1.6 4.8-2.56v-12.64zM376.02 356.483h26.32v-8.32H366.74v59.36H402.34v-8.4h-26.32v-18.4h21.68v-8.4h-21.68v-15.84z"/></g></g></svg>