<?xml version="1.0" encoding="UTF-8" standalone="no"?>
<svg
   xmlns:sketch="http://www.bohemiancoding.com/sketch/ns"
   xmlns:dc="http://purl.org/dc/elements/1.1/"
   xmlns:cc="http://creativecommons.org/ns#"
   xmlns:rdf="http://www.w3.org/1999/02/22-rdf-syntax-ns#"
   xmlns:svg="http://www.w3.org/2000/svg"
   xmlns="http://www.w3.org/2000/svg"
   xmlns:sodipodi="http://sodipodi.sourceforge.net/DTD/sodipodi-0.dtd"
   xmlns:inkscape="http://www.inkscape.org/namespaces/inkscape"
   width="512px"
   height="512px"
   viewBox="0 0 512 512"
   class="gf-header__logo"
   version="1.1"
   id="svg2"
   inkscape:version="0.91 r13725"
   sodipodi:docname="gf-logo.svg">
  <metadata
     id="metadata25">
    <rdf:RDF>
      <cc:Work
         rdf:about="">
        <dc:format>image/svg+xml</dc:format>
        <dc:type
           rdf:resource="http://purl.org/dc/dcmitype/StillImage" />
      </cc:Work>
    </rdf:RDF>
  </metadata>
  <sodipodi:namedview
     pagecolor="#ffffff"
     bordercolor="#666666"
     borderopacity="1"
     objecttolerance="10"
     gridtolerance="10"
     guidetolerance="10"
     inkscape:pageopacity="0"
     inkscape:pageshadow="2"
     inkscape:window-width="1503"
     inkscape:window-height="848"
     id="namedview23"
     showgrid="false"
     inkscape:zoom="0.4609375"
     inkscape:cx="29.288136"
     inkscape:cy="256"
     inkscape:window-x="0"
     inkscape:window-y="27"
     inkscape:window-maximized="0"
     inkscape:current-layer="Group" />
  <!-- Generator: Sketch 3.3.1 (12002) - http://www.bohemiancoding.com/sketch -->
  <title
     id="title4">Gaunt Face</title>
  <desc
     id="desc6">Created with Sketch.</desc>
  <defs
     id="defs8" />
  <g
     id="Page-1"
     stroke="none"
     stroke-width="1"
     fill="none"
     fill-rule="evenodd"
     sketch:type="MSPage">
    <g
       id="gf-logo"
       sketch:type="MSArtboardGroup"
       fill="#FFFFFF">
      <g
         id="Group"
         sketch:type="MSLayerGroup"
         transform="translate(103.000000, 89.000000)">
        <path
           d="m 50.08,32.2 c -6.826667,0 -13.653333,0 -20.48,0 -1.408699,6.845243 0.726124,10.146964 7.909633,8.4 C 42.756602,38.900904 41.836182,50.733755 39.11,52.29 25.908205,57.997183 9.2157543,46.073481 11.28,31.32 12.116236,15.661529 32.90496,7.1453701 44.48,17.48 44.51926,11.12271 46.637149,2.6437693 36.40375,4.00625 16.244198,-0.12754484 -3.0729036,20.912805 2.83,40.65 6.9726641,60.498185 32.926168,69.545177 48.722582,57.619751 51.766626,53.684223 49.265243,46.843152 50.08,41.739583 c 0,-3.179861 0,-6.359722 0,-9.539583 z"
           id="G"
           inkscape:connector-curvature="0" />
        <path
           d="m 169.94,62.523438 c 5.43327,-0.0027 13.39556,1.683292 7.80219,-5.682171 C 169.94146,38.04199 162.14073,19.242714 154.34,0.4434375 145.72667,21.136771 137.11333,41.830104 128.5,62.523438 c 5.45055,-0.01976 12.09414,1.716464 12.50615,-5.719342 0.73175,-6.929239 5.43719,-8.009753 11.56233,-7.000658 4.43351,1.249306 12.63549,-3.048051 13.62647,3.268195 1.24835,3.150601 2.4967,6.301203 3.74505,9.451805 z m -22.8,-21.04 c 2.4,-6.026667 4.8,-12.053334 7.2,-18.080001 2.4,6.026667 4.8,12.053334 7.2,18.080001 -4.8,0 -9.6,-10e-7 -14.4,0 z"
           id="A"
           inkscape:connector-curvature="0" />
        <path
           d="m 281.18,62.523438 c 12.83403,0.891543 24.14073,-10.809455 22,-23.675393 0,-11.894869 0,-23.789738 0,-35.6846075 -6.13915,-0.6755526 -11.63366,-0.7064701 -9.36,7.0307845 -0.47275,12.256876 1.02291,24.763649 -0.9,36.839215 -6.63664,12.177453 -28.47391,5.279221 -24.46,-9.06424 0,-11.60192 0,-23.20384 0,-34.8057595 -6.13838,-0.7014487 -11.54354,-0.6696837 -9.28,7.0307845 0.50106,13.020462 -1.14174,26.277752 1.11375,39.110465 2.84956,8.65036 12.19979,13.353335 20.88625,13.218751 z"
           id="U"
           inkscape:connector-curvature="0" />
        <path
           d="m 48.88,193.24344 c 0,-20.69334 0,-41.38667 0,-62.08 -6.139147,-0.67555 -11.63366,-0.70647 -9.36,7.03078 0,10.34974 0,20.69948 0,31.04922 -12.426667,-13.62667 -24.853333,-27.25334 -37.28,-40.88 0,20.72 0,41.44 0,62.16 6.1383769,0.70145 11.54354,0.66968 9.28,-7.03079 0,-10.3764 0,-20.75281 0,-31.12921 12.453333,13.62666 24.906667,27.25333 37.36,40.88 z"
           id="N"
           inkscape:connector-curvature="0" />
        <path
           d="m 173.4,131.16344 c -14,0 -28,0 -42,0 -1.44019,6.85006 0.77693,10.04282 7.90963,8.32 6.84462,-1.40462 10.16047,0.71953 8.41037,7.90963 0,14.37679 0,28.75358 0,43.13037 6.13915,0.67555 11.63366,0.70647 9.36,-7.03079 0,-14.66974 0,-29.33947 0,-44.00921 5.44,0 10.88,0 16.32,0 0,-2.77334 0,-5.54667 0,-8.32 z"
           id="T"
           inkscape:connector-curvature="0" />
        <path
           d="m 273.02,139.48344 c 8.8,0 17.6,0 26.4,0 1.44019,-6.85007 -0.77693,-10.04283 -7.90963,-8.32 -9.25679,0 -18.51358,0 -27.77037,0 0,19.78666 0,39.57333 0,59.36 6.13838,0.70145 11.54354,0.66968 9.28,-7.03079 0,-6.58974 0,-13.17947 0,-19.76921 7.22667,0 14.45333,0 21.68,0 1.4087,-6.84525 -0.72612,-10.14697 -7.90963,-8.4 -4.15494,-1.31404 -13.83861,2.90066 -13.77037,-2.63655 0,-4.40115 0,-8.8023 0,-13.20345 z"
           id="F"
           inkscape:connector-curvature="0" />
        <path
           d="m 41.94,318.52344 c 5.433271,-0.003 13.39556,1.68329 7.802192,-5.68217 C 41.941461,294.04199 34.140731,275.24271 26.34,256.44344 c -8.613333,20.69333 -17.2266667,41.38666 -25.84,62.08 5.4505546,-0.0198 12.094142,1.71646 12.506154,-5.71934 0.731751,-6.92924 5.437187,-8.00976 11.562327,-7.00066 4.433511,1.2493 12.635486,-3.04805 13.626464,3.26819 1.248352,3.1506 2.496703,6.30121 3.745055,9.45181 z m -22.8,-21.04 c 2.4,-6.02667 4.8,-12.05334 7.2,-18.08 2.4,6.02666 4.8,12.05333 7.2,18.08 -4.8,0 -9.6,0 -14.4,0 z"
           id="path19"
           inkscape:connector-curvature="0" />
        <path
           d="m 176.84,301.48 c -9.48064,14.16291 -33.86978,8.6574 -36.4025,-8.155 -4.0955,-16.21941 15.80059,-30.81155 30.02625,-21.80625 4.87873,5.11333 5.05345,-15.22925 -4.10375,-11.31875 -21.0696,-5.25705 -41.61773,17.44596 -34.28375,37.88375 5.01324,18.39996 29.20095,27.08014 44.76375,16.03625 0,-4.21333 0,-8.42667 0,-12.64 z"
           id="C"
           inkscape:connector-curvature="0" />
        <path
           d="m 273.02,267.48344 c 8.77333,0 17.54667,0 26.32,0 1.44019,-6.85007 -0.77693,-10.04283 -7.90963,-8.32 -9.23013,0 -18.46025,0 -27.69037,0 0,19.78666 0,39.57333 0,59.36 11.86667,0 23.73333,0 35.6,0 1.4087,-6.84525 -0.72612,-10.14697 -7.90963,-8.4 -6.13679,0 -12.27358,0 -18.41037,0 0,-6.13334 0,-12.26667 0,-18.4 7.22667,0 14.45333,0 21.68,0 1.4087,-6.84525 -0.72612,-10.14697 -7.90963,-8.4 -4.15494,-1.31404 -13.83861,2.90066 -13.77037,-2.63655 0,-4.40115 0,-8.8023 0,-13.20345 z"
           id="E"
           inkscape:connector-curvature="0" />
      </g>
    </g>
  </g>
</svg>
