<?xml version="1.0" encoding="UTF-8" standalone="no"?>
<svg width="24px" height="24px" viewBox="0 0 24 24" version="1.1" xmlns="http://www.w3.org/2000/svg" xmlns:xlink="http://www.w3.org/1999/xlink" xmlns:sketch="http://www.bohemiancoding.com/sketch/ns">
    <g id="Page-1" stroke="none" stroke-width="1" fill="#BFBEC0" fill-rule="evenodd" sketch:type="MSPage">
        <g id="Artboard-10" sketch:type="MSArtboardGroup">
            <path d="M21.6,2.88 C20.88,2.64 16.44,2.4 12,2.4 C7.56,2.4 3.12,2.64 2.4,2.88 C0.54,3.48 0,7.68 0,12 C0,16.32 0.54,20.52 2.4,21.12 C3.12,21.36 7.56,21.6 12,21.6 C16.44,21.6 20.88,21.36 21.6,21.12 C23.46,20.52 24,16.32 24,12 C24,7.68 23.46,3.48 21.6,2.88 L21.6,2.88 Z M9.6,17.4 L9.6,6.6 L16.8,12 L9.6,17.4 L9.6,17.4 Z" id="Shape-Copy" sketch:type="MSShapeGroup"></path>
        </g>
    </g>
</svg>
