<?xml version="1.0" encoding="UTF-8" standalone="no"?>
<svg width="24px" height="24px" viewBox="0 0 24 24" version="1.1" xmlns="http://www.w3.org/2000/svg" xmlns:xlink="http://www.w3.org/1999/xlink" xmlns:sketch="http://www.bohemiancoding.com/sketch/ns">
    <g id="Page-1" stroke="none" stroke-width="1" fill-rule="evenodd" sketch:type="MSPage">
        <g id="rss" sketch:type="MSArtboardGroup">
            <path d="M2.00322763,12.6713467 C4.50060518,12.6713467 6.84830146,13.6468974 8.61260389,15.4212862 C10.3801339,17.195675 11.3532639,19.5591059 11.3532639,22.0750424 L15.2018075,22.0750424 C15.2018075,14.767288 9.28072299,8.82239974 2.00322763,8.82239974 L2.00322763,12.6713467 L2.00322763,12.6713467 Z M2.00927943,5.84854353 C10.9098685,5.84854353 18.1514565,13.12967 18.1514565,22.0798838 L22,22.0798838 C22,11.0071008 13.0316308,2 2.00927943,2 L2.00927943,5.84854353 L2.00927943,5.84854353 Z M7.33123537,19.3912693 C7.33123537,20.8630679 6.13741628,22.056887 4.66561769,22.056887 C3.19381909,22.056887 2,20.8634713 2,19.3912693 C2,17.9186638 3.19341564,16.7256516 4.66521423,16.7256516 C6.13701283,16.7256516 7.33123537,17.9186638 7.33123537,19.3912693 L7.33123537,19.3912693 Z" id="Shape" sketch:type="MSShapeGroup"></path>
        </g>
    </g>
</svg>