<svg xmlns="http://www.w3.org/2000/svg" viewBox="0 0 30 30"><path d="M5 5V0H.5C.2 0 0 .2 0 .5V5h5zM29.9.2c-.1-.1-.2-.2-.4-.2H6v5h1V3.5c0-.3.2-.5.5-.5s.5.2.5.5V5h2V3.5c0-.3.2-.5.5-.5s.5.2.5.5V5h2V3.5c0-.3.2-.5.5-.5s.5.2.5.5V5h2V3.5c0-.3.2-.5.5-.5s.5.2.5.5V5h2V3.5c0-.3.2-.5.5-.5s.5.2.5.5V5h2V3.5c0-.3.2-.5.5-.5s.5.2.5.5V5h2V3.5c0-.3.2-.5.5-.5s.5.2.5.5V5h2.5c.2 0 .4-.2.5-.4l1-4c0-.1 0-.3-.1-.4zM15.5 6c.3 0 .5.2.5.5v1c0 .3-.2.5-.5.5s-.5-.2-.5-.5v-1c0-.3.2-.5.5-.5H6v9.5c0-.3.2-.5.5-.5h1c.3 0 .5.2.5.5s-.2.5-.5.5h-1c-.3 0-.5-.2-.5-.5V26h13.7c.1 0 .1-.1.2-.1l6-6s.1-.1.1-.2V6H15.5zm-4 10h-1c-.3 0-.5-.2-.5-.5s.2-.5.5-.5h1c.3 0 .5.2.5.5s-.2.5-.5.5zm4.5-.5c0 .3-.2.5-.5.5h-1c-.3 0-.5-.2-.5-.5s.2-.5.5-.5h.5v-.5c0-.3.2-.5.5-.5s.5.2.5.5v1zm0-4c0 .3-.2.5-.5.5s-.5-.2-.5-.5v-1c0-.3.2-.5.5-.5s.5.2.5.5v1zm4 12.8V20h4.3L20 24.3zM3.5 26c-.3 0-.5-.2-.5-.5s.2-.5.5-.5H5v-2H3.5c-.3 0-.5-.2-.5-.5s.2-.5.5-.5H5v-2H3.5c-.3 0-.5-.2-.5-.5s.2-.5.5-.5H5v-2H3.5c-.3 0-.5-.2-.5-.5s.2-.5.5-.5H5v-2H3.5c-.3 0-.5-.2-.5-.5s.2-.5.5-.5H5v-2H3.5c-.3 0-.5-.2-.5-.5s.2-.5.5-.5H5V8H3.5c-.3 0-.5-.2-.5-.5s.2-.5.5-.5H5V6H0v23.5c0 .2.1.3.2.4.1.1.2.1.3.1h.1l4-1c.2-.1.4-.3.4-.5V26H3.5z"/></svg>