<?xml version="1.0" encoding="UTF-8" standalone="no"?>
<svg width="24px" height="24px" viewBox="0 0 24 24" version="1.1" xmlns="http://www.w3.org/2000/svg" xmlns:xlink="http://www.w3.org/1999/xlink" xmlns:sketch="http://www.bohemiancoding.com/sketch/ns">
    <g id="Page-1" stroke="none" stroke-width="1" fill="#BAB8BC" fill-rule="evenodd" sketch:type="MSPage">
        <g id="twitter-block-logo" sketch:type="MSArtboardGroup">
            <path d="M21.6166282,6.89884116 C21.5057737,15.4346379 16.0369515,21.2729751 7.90762125,21.6424901 C4.54503464,21.7902961 2.10623557,20.7187026 -1.77635684e-15,19.3699728 C2.47575058,19.7579636 5.56120092,18.7787488 7.20554273,17.356116 C4.76674365,17.1159312 3.3256351,15.8780559 2.66050808,13.8826749 C3.36258661,14.0120051 4.10161663,13.9750536 4.76674365,13.8272476 C2.56812933,13.0882176 0.997690531,11.7394878 0.923787529,8.89422222 C1.5334873,9.17135848 2.18013857,9.43001899 3.03002309,9.48544624 C1.36720554,8.56165871 0.166281755,5.14364485 1.55196305,2.88960328 C3.99076212,5.56858712 6.92840647,7.74872569 11.7505774,8.04433769 C10.5496536,2.87112753 17.404157,0.0628134456 20.2678984,3.53625455 C21.4872979,3.2960698 22.4665127,2.83417603 23.408776,2.33533077 C23.0207852,3.53625455 22.2632794,4.36766333 21.3394919,5.0512661 C22.3371824,4.92193585 23.2424942,4.66327534 24,4.29376033 C23.5381062,5.27297511 22.5034642,6.15981114 21.6166282,6.89884116 L21.6166282,6.89884116 Z" id="Shape" sketch:type="MSShapeGroup"></path>
        </g>
    </g>
</svg>
