<?xml version="1.0" encoding="UTF-8" standalone="no"?>
<svg
   xmlns:dc="http://purl.org/dc/elements/1.1/"
   xmlns:cc="http://creativecommons.org/ns#"
   xmlns:rdf="http://www.w3.org/1999/02/22-rdf-syntax-ns#"
   xmlns:svg="http://www.w3.org/2000/svg"
   xmlns="http://www.w3.org/2000/svg"
   id="svg8"
   version="1.1"
   viewBox="0 0 266.7 266.70001"
   height="1008"
   width="1008">
  <defs
     id="defs2" />
  <metadata
     id="metadata5">
    <rdf:RDF>
      <cc:Work
         rdf:about="">
        <dc:format>image/svg+xml</dc:format>
        <dc:type
           rdf:resource="http://purl.org/dc/dcmitype/StillImage" />
        <dc:title></dc:title>
      </cc:Work>
    </rdf:RDF>
  </metadata>
  <g
     transform="translate(0,-30.299983)"
     id="layer1">
    <g
       id="text4489"
       style="font-style:normal;font-variant:normal;font-weight:normal;font-stretch:normal;font-size:57.85566711px;line-height:1.25;font-family:'Hallo sans';-inkscape-font-specification:'Hallo sans';letter-spacing:0px;word-spacing:0px;fill:#000000;fill-opacity:1;stroke:none;stroke-width:0.26458383"
       transform="scale(1.0000019,0.9999981)"
       aria-label="G">
      <path
         id="path4566"
         style="font-size:57.85566711px;stroke-width:0.26458383"
         d="m 57.193915,107.09795 q -4.689473,0 -7.373208,-1.75149 -2.683734,-1.75149 -3.757228,-5.508723 -0.649747,-2.203487 -0.593247,-12.599427 0.0565,-9.689695 0.423748,-11.525934 1.497241,-7.909955 11.102186,-7.909955 9.915693,0 11.412934,7.909955 l -3.53123,0.677996 q -0.451997,-2.514236 -1.977488,-3.644229 -1.864489,-1.355992 -5.904216,-1.355992 -3.926728,0 -5.649968,1.299492 -1.440741,1.101744 -1.920989,3.700729 -0.367247,1.80799 -0.367247,11.130436 -0.02825,9.661444 0.451997,11.328185 0.677996,2.372987 2.175237,3.418227 1.77974,1.243 5.508719,1.243 3.757228,0 5.452218,-1.1865 1.440742,-0.96049 2.146988,-3.474727 0.423748,-1.384242 0.451997,-8.983449 h -6.497462 v -3.587729 h 10.085192 v 1.77974 q 0.02825,9.689694 -0.593247,11.780182 -1.101744,3.813733 -3.700729,5.536973 -2.627234,1.72324 -7.344957,1.72324 z" />
    </g>
    <g
       id="text4497-4"
       style="font-style:normal;font-variant:normal;font-weight:normal;font-stretch:normal;font-size:57.85560608px;line-height:1.25;font-family:'Hallo sans';-inkscape-font-specification:'Hallo sans';letter-spacing:0px;word-spacing:0px;fill:#000000;fill-opacity:1;stroke:none;stroke-width:0.26458353"
       transform="scale(1.000003,0.99999701)"
       aria-label="
N">
      <path
         id="path4563"
         style="stroke-width:0.26458353"
         d="m 66.105049,182.6626 h -3.587726 q 0,-3.92673 -3.305227,-10.22643 -1.949237,-3.72898 -6.892953,-11.24343 -3.220479,-4.91546 -4.548219,-7.17545 v 28.64531 h -3.587726 v -38.02424 h 3.587726 q 0,3.07923 7.570948,14.5769 5.141465,7.85344 7.175451,11.80842 v -26.38532 h 3.587726 z" />
    </g>
    <g
       id="text4497-9"
       style="font-style:normal;font-variant:normal;font-weight:normal;font-stretch:normal;font-size:57.85566711px;line-height:1.25;font-family:'Hallo sans';-inkscape-font-specification:'Hallo sans';letter-spacing:0px;word-spacing:0px;fill:#000000;fill-opacity:1;stroke:none;stroke-width:0.26458383"
       transform="scale(1.0000019,0.9999981)"
       aria-label="
A">
      <path
         id="path4560"
         style="stroke-width:0.26458383"
         d="m 51.076176,243.39606 q 2.372987,-7.76871 5.988966,-17.4019 3.672479,9.63319 6.073715,17.4019 z m 19.040391,15.48091 q 0,-9.8592 -11.384685,-38.05253 h -3.333481 q -11.215185,28.19333 -11.215185,38.05253 h 3.587729 q 0,-3.78548 2.259987,-11.89318 h 14.181419 q 2.316486,8.1077 2.316486,11.89318 z" />
    </g>
    <g
       id="text4493"
       style="font-style:normal;font-variant:normal;font-weight:normal;font-stretch:normal;font-size:10.58333302px;line-height:1.25;font-family:'Hallo sans';-inkscape-font-specification:'Hallo sans';letter-spacing:0px;word-spacing:0px;fill:#000000;fill-opacity:1;stroke:none;stroke-width:0.26458332"
       aria-label="A">
      <path
         id="path4557"
         style="font-size:57.85555649px;stroke-width:0.26458332"
         d="m 127.27624,90.995368 q 2.37298,-7.76869 5.98896,-17.401866 3.67247,9.633176 6.0737,17.401866 z m 19.04036,15.480882 q 0,-9.859175 -11.38467,-38.052459 h -3.33347 Q 120.3833,96.617075 120.3833,106.47625 h 3.58772 q 0,-3.78547 2.25998,-11.893159 h 14.18139 q 2.31648,8.107689 2.31648,11.893159 z" />
    </g>
    <g
       transform="matrix(1,0,0,0.99999783,-4.6979842,-6.7028604)"
       id="text4497-7"
       style="font-style:normal;font-variant:normal;font-weight:normal;font-stretch:normal;font-size:57.85555649px;line-height:1.25;font-family:'Hallo sans';-inkscape-font-specification:'Hallo sans';letter-spacing:0px;word-spacing:0px;fill:#000000;fill-opacity:1;stroke:none;stroke-width:0.26458332"
       aria-label=" T">
      <path
         id="path4576"
         style="stroke-width:0.26458332"
         d="m 127.46563,151.34111 v 3.58772 h 8.05119 v 34.43649 h 3.61597 v -34.43649 h 8.05119 v -3.58772 z" />
    </g>
    <g
       id="text4497-78"
       style="font-style:normal;font-variant:normal;font-weight:normal;font-stretch:normal;font-size:57.85555649px;line-height:1.25;font-family:'Hallo sans';-inkscape-font-specification:'Hallo sans';letter-spacing:0px;word-spacing:0px;fill:#000000;fill-opacity:1;stroke:none;stroke-width:0.26458332"
       aria-label="
C">
      <path
         id="path4554"
         style="stroke-width:0.26458332"
         d="m 133.60647,259.49797 q -4.68946,0 -7.37319,-1.75148 -2.68373,-1.75149 -3.75723,-5.50871 -0.64974,-2.20348 -0.59324,-12.5994 0.0565,-9.68968 0.42375,-11.52592 1.49723,-7.90993 11.10216,-7.90993 9.91567,0 11.41291,7.90993 l -3.53122,0.678 q -0.452,-2.51423 -1.97748,-3.64422 -1.86449,-1.35599 -5.90421,-1.35599 -3.92672,0 -5.64996,1.29949 -1.44074,1.10174 -1.92098,3.70072 -0.36725,1.80799 -0.36725,11.13041 -0.0282,9.66143 0.452,11.32817 0.67799,2.37298 2.17523,3.41822 1.77974,1.24299 5.50871,1.24299 3.75722,0 5.45221,-1.18649 1.44074,-0.96049 2.14698,-3.47472 l 3.44647,0.98874 q -1.10174,3.81372 -3.70072,5.53696 -2.62723,1.72323 -7.34494,1.72323 z" />
    </g>
    <g
       id="text4497"
       style="font-style:normal;font-variant:normal;font-weight:normal;font-stretch:normal;font-size:57.85547256px;line-height:1.25;font-family:'Hallo sans';-inkscape-font-specification:'Hallo sans';letter-spacing:0px;word-spacing:0px;fill:#000000;fill-opacity:1;stroke:none;stroke-width:0.26458293"
       transform="scale(0.99999858,1.0000014)"
       aria-label="
U">
      <path
         id="path4551"
         style="stroke-width:0.26458293"
         d="m 209.55691,106.80108 q -3.50297,0 -6.21494,-2.00573 -2.71198,-2.00573 -3.67247,-5.254454 -0.90399,-3.107472 -0.45199,-31.441964 h 3.58771 q -0.42374,27.741248 0.31075,30.453223 0.67799,2.259975 2.62723,3.531215 1.72323,1.12999 3.81371,1.12999 2.28823,0 4.01147,-1.24299 1.69498,-1.27123 2.31647,-3.418215 0.7345,-2.711975 0.31075,-30.453223 h 3.58772 q 0.452,28.334492 -0.452,31.441964 -0.96049,3.305224 -3.61596,5.282704 -2.65548,1.97748 -6.15845,1.97748 z" />
    </g>
    <g
       id="text4497-1"
       style="font-style:normal;font-variant:normal;font-weight:normal;font-stretch:normal;font-size:57.85541534px;line-height:1.25;font-family:'Hallo sans';-inkscape-font-specification:'Hallo sans';letter-spacing:0px;word-spacing:0px;fill:#000000;fill-opacity:1;stroke:none;stroke-width:0.26458263"
       aria-label="
F">
      <path
         id="path4548"
         style="stroke-width:0.26458263"
         d="m 199.9623,144.62375 v 38.05237 h 3.58771 v -19.85955 h 12.57113 v -3.58771 h -12.57113 v -11.01739 h 13.84236 v -3.58772 z" />
    </g>
    <g
       id="text4497-41"
       style="font-style:normal;font-variant:normal;font-weight:normal;font-stretch:normal;font-size:57.85547256px;line-height:1.25;font-family:'Hallo sans';-inkscape-font-specification:'Hallo sans';letter-spacing:0px;word-spacing:0px;fill:#000000;fill-opacity:1;stroke:none;stroke-width:0.26458293"
       transform="scale(0.99999858,1.0000014)"
       aria-label="
E">
      <path
         id="path4545"
         style="stroke-width:0.26458293"
         d="m 201.33244,220.80958 v 38.08065 h 18.70133 v -3.58772 h -15.11362 v -16.27185 h 12.57114 v -3.61597 h -12.57114 v -10.98915 h 13.84238 v -3.61596 z" />
    </g>
  </g>
</svg>
