<svg xmlns="http://www.w3.org/2000/svg" viewBox="0 0 135.467 135.467"><path d="M.284.185v135h135v-135zM4.14 4.042h127.286v127.286H4.14z"/><path d="M31.48 40.812q-2.233 0-3.511-.835-1.275-.832-1.787-2.622-.31-1.05-.283-5.998.025-4.612.2-5.486.713-3.767 5.286-3.767 4.722 0 5.434 3.765l-1.68.323q-.217-1.195-.943-1.733-.887-.645-2.812-.645-1.868 0-2.69.618-.684.525-.911 1.762-.178.86-.178 5.299-.012 4.599.216 5.393.323 1.129 1.035 1.625.847.594 2.624.594 1.787 0 2.593-.565.688-.456 1.025-1.654.2-.658.213-4.277h-3.092v-1.707h4.801v.847q.013 4.611-.282 5.609-.525 1.814-1.762 2.636-1.25.819-3.497.819zm4.242 35.972h-1.707q0-1.87-1.575-4.868-.928-1.775-3.281-5.353-1.533-2.339-2.166-3.415v13.636h-1.706V58.682h1.707q0 1.467 3.607 6.94 2.449 3.737 3.416 5.621V58.684h1.707zm-7.156 28.914q1.131-3.7 2.853-8.286 1.75 4.587 2.89 8.286zm9.065 7.369q0-4.694-5.42-18.115h-1.587q-5.338 13.421-5.338 18.115h1.708q0-1.802 1.075-5.661h6.752q1.103 3.859 1.103 5.66zm27.213-79.922q1.128-3.699 2.849-8.283 1.75 4.586 2.893 8.283zm9.064 7.37q0-4.693-5.42-18.115H66.9q-5.339 13.422-5.339 18.114h1.707q0-1.8 1.075-5.66h6.753q1.104 3.86 1.104 5.66zm-11.21 18.17v1.706h3.832v16.393h1.72V60.391h3.832v-1.71zm5.159 54.678q-2.232 0-3.51-.834-1.276-.834-1.786-2.624-.313-1.047-.284-5.998.025-4.611.2-5.486.715-3.765 5.286-3.765 4.721 0 5.433 3.765l-1.68.325q-.215-1.2-.941-1.737-.888-.645-2.812-.645-1.87 0-2.69.618-.687.523-.914 1.763-.175.858-.175 5.298-.013 4.599.217 5.392.323 1.129 1.035 1.625.847.593 2.622.593 1.79 0 2.597-.564.685-.458 1.02-1.655l1.641.471q-.524 1.817-1.762 2.637-1.25.82-3.496.82zM104.014 40.67q-1.668 0-2.959-.954-1.29-.955-1.75-2.502-.43-1.477-.214-14.966h1.708q-.203 13.205.147 14.496.325 1.075 1.25 1.682.822.537 1.817.537 1.09 0 1.91-.59.807-.606 1.103-1.628.35-1.29.147-14.496h1.709q.215 13.488-.215 14.966-.458 1.575-1.722 2.517-1.262.94-2.93.94zm-4.568 18.007v18.112h1.707v-9.452h5.985V65.63h-5.985V60.38h6.589v-1.706zm.65 36.269v18.126h8.903v-1.707h-7.194v-7.748h5.986v-1.722h-5.986v-5.231h6.59v-1.717z"/></svg>