<?xml version="1.0" encoding="UTF-8" standalone="no"?>
<svg
   xmlns:dc="http://purl.org/dc/elements/1.1/"
   xmlns:cc="http://creativecommons.org/ns#"
   xmlns:rdf="http://www.w3.org/1999/02/22-rdf-syntax-ns#"
   xmlns:svg="http://www.w3.org/2000/svg"
   xmlns="http://www.w3.org/2000/svg"
   xmlns:sodipodi="http://sodipodi.sourceforge.net/DTD/sodipodi-0.dtd"
   xmlns:inkscape="http://www.inkscape.org/namespaces/inkscape"
   viewBox="0 0 135.467 135.467"
   version="1.1"
   id="svg8"
   sodipodi:docname="logo-with-border.svg"
   inkscape:version="0.92.2 (5c3e80d, 2017-08-06)">
  <metadata
     id="metadata14">
    <rdf:RDF>
      <cc:Work
         rdf:about="">
        <dc:format>image/svg+xml</dc:format>
        <dc:type
           rdf:resource="http://purl.org/dc/dcmitype/StillImage" />
      </cc:Work>
    </rdf:RDF>
  </metadata>
  <defs
     id="defs12" />
  <sodipodi:namedview
     pagecolor="#ffffff"
     bordercolor="#666666"
     borderopacity="1"
     objecttolerance="10"
     gridtolerance="10"
     guidetolerance="10"
     inkscape:pageopacity="0"
     inkscape:pageshadow="2"
     inkscape:window-width="1807"
     inkscape:window-height="818"
     id="namedview10"
     showgrid="false"
     inkscape:zoom="1.7421218"
     inkscape:cx="67.733498"
     inkscape:cy="67.733498"
     inkscape:window-x="3642"
     inkscape:window-y="153"
     inkscape:window-maximized="0"
     inkscape:current-layer="svg8" />
  <path
     d="m 0.28371762,0.18499524 c 0,44.99999876 0,89.99999676 0,135.00000476 H 135.28372 V 0.18499524 Z M 4.1405128,4.0417204 H 131.42693 V 131.32828 H 4.1405128 Z"
     id="path2"
     inkscape:connector-curvature="0"
     style="stroke-width:1.25057673" />
  <path
     d="m 31.480406,40.811626 q -2.233138,0 -3.511539,-0.834771 -1.274649,-0.832272 -1.78701,-2.621782 -0.309914,-1.049712 -0.282422,-5.998357 0.02499,-4.611236 0.199945,-5.485996 0.712305,-3.766468 5.286052,-3.766468 4.721207,0 5.433511,3.765218 l -1.680789,0.322412 q -0.216191,-1.194673 -0.942242,-1.733275 -0.887257,-0.644824 -2.81173,-0.644824 -1.868238,0 -2.689263,0.618581 -0.684812,0.524856 -0.91225,1.762017 -0.177452,0.859765 -0.177452,5.298549 -0.0125,4.598739 0.216191,5.393521 0.322412,1.128441 1.034717,1.624556 0.847268,0.593587 2.624281,0.593587 1.787011,0 2.593039,-0.564846 0.687312,-0.456124 1.024719,-1.653297 0.199946,-0.658569 0.212442,-4.277577 h -3.091653 v -1.707033 h 4.801185 v 0.847268 q 0.0125,4.611237 -0.282422,5.608463 -0.524856,1.814503 -1.762018,2.636778 -1.249658,0.818526 -3.496542,0.818526 z m 4.241337,35.972645 h -1.707032 q 0,-1.869488 -1.574569,-4.868666 -0.928495,-1.774514 -3.2816,-5.352284 -1.532081,-2.33936 -2.165657,-3.415314 V 76.784271 H 25.287102 V 58.68173 h 1.707033 q 0,1.467099 3.606512,6.940598 2.449328,3.736476 3.416563,5.62096 V 58.68423 h 1.707033 z M 28.566204,105.6976 q 1.130941,-3.69899 2.852969,-8.285231 1.74952,4.586241 2.890458,8.285231 z m 9.065017,7.36923 q 0,-4.69371 -5.419765,-18.115037 H 30.62439 q -5.338537,13.421327 -5.338537,18.115037 h 1.708282 q 0,-1.80201 1.074705,-5.66095 h 6.751901 q 1.103447,3.85894 1.103447,5.66095 z M 64.843765,33.144977 q 1.128441,-3.698987 2.84922,-8.282731 1.74952,4.586244 2.892957,8.282731 z m 9.063767,7.369231 q 0,-4.692465 -5.419765,-18.113787 h -1.587066 q -5.338537,13.421322 -5.338537,18.113787 h 1.707032 q 0,-1.799507 1.074706,-5.660949 h 6.753149 Q 72.2005,38.714701 72.2005,40.514208 Z M 62.698102,58.68423 v 1.707032 h 3.831451 v 16.393009 h 1.720779 V 60.391262 h 3.83145 V 58.68173 Z M 67.85669,113.363 q -2.23189,0 -3.509039,-0.83352 -1.27715,-0.83477 -1.78701,-2.62428 -0.312415,-1.04722 -0.283673,-5.99836 0.02499,-4.611238 0.199945,-5.485997 0.714805,-3.765219 5.286052,-3.765219 4.721206,0 5.433511,3.765219 l -1.68079,0.324911 q -0.214941,-1.199672 -0.940991,-1.737025 -0.887257,-0.644823 -2.81173,-0.644823 -1.869488,0 -2.689263,0.618581 -0.687312,0.522357 -0.914749,1.762017 -0.174953,0.858515 -0.174953,5.298546 -0.0125,4.59874 0.217441,5.39228 0.322411,1.12844 1.034717,1.62455 0.847267,0.59359 2.621781,0.59359 1.789509,0 2.596788,-0.56485 0.684812,-0.45737 1.020971,-1.65454 l 1.640801,0.47112 q -0.524857,1.817 -1.762018,2.63677 -1.249657,0.81978 -3.496542,0.81978 z"
     id="path4"
     inkscape:connector-curvature="0"
     style="stroke-width:1.24965763" />
  <path
     d="m 104.01429,40.669165 q -1.6683,0 -2.95919,-0.953488 -1.290904,-0.954738 -1.749534,-2.501815 -0.42987,-1.477096 -0.21494,-14.965899 h 1.708284 q -0.20244,13.205131 0.14746,14.496027 0.32492,1.074706 1.24966,1.68204 0.82228,0.537353 1.81701,0.537353 1.0897,0 1.90948,-0.591088 0.80728,-0.604835 1.10344,-1.627055 0.34991,-1.290896 0.14746,-14.496028 h 1.70829 q 0.21494,13.487554 -0.21494,14.965899 -0.45738,1.574569 -1.72203,2.516811 -1.26216,0.940992 -2.93045,0.940992 z m -4.568754,18.007567 v 18.112537 h 1.707034 v -9.45241 h 5.98586 v -1.707032 h -5.98586 v -5.248563 h 6.58944 v -1.705783 z m 0.649824,36.268812 v 18.126286 h 8.90381 v -1.70703 h -7.19428 v -7.74788 h 5.98586 v -1.72203 h -5.98586 v -5.231066 h 6.58945 v -1.71703 z"
     id="path6"
     inkscape:connector-curvature="0"
     style="stroke-width:1.24965763" />
</svg>
