<svg xmlns="http://www.w3.org/2000/svg" viewBox="0 0 266.7 266.7"><g stroke-width=".265" font-family="Hallo sans" letter-spacing="0" word-spacing="0"><path d="M57.194 76.798q-4.69 0-7.373-1.752-2.683-1.75-3.756-5.508-.65-2.204-.594-12.6.057-9.69.424-11.526 1.497-7.91 11.102-7.91 9.916 0 11.413 7.91l-3.532.678q-.452-2.514-1.977-3.644-1.864-1.356-5.904-1.356-3.926 0-5.65 1.3-1.44 1.1-1.92 3.7-.368 1.808-.368 11.13-.028 9.662.452 11.33.678 2.372 2.175 3.417 1.78 1.243 5.51 1.243 3.756 0 5.45-1.186 1.442-.96 2.148-3.475.424-1.385.452-8.985h-6.497v-3.587h10.085v1.78q.028 9.69-.593 11.78-1.102 3.813-3.7 5.537-2.628 1.723-7.346 1.723zM66.105 152.362h-3.587q0-3.927-3.306-10.226-1.95-3.73-6.893-11.244-3.22-4.915-4.55-7.175v28.645h-3.587v-38.024h3.588q0 3.08 7.572 14.577 5.142 7.853 7.176 11.808v-26.385h3.587zM51.076 213.096q2.373-7.77 5.99-17.402 3.672 9.633 6.073 17.402zm19.04 15.48q0-9.86-11.384-38.052H55.4q-11.217 28.193-11.217 38.052h3.588q0-3.785 2.26-11.893h14.182q2.317 8.108 2.317 11.893zM127.276 60.695q2.373-7.768 5.99-17.4 3.672 9.632 6.073 17.4zm19.04 15.48q0-9.858-11.384-38.05h-3.334q-11.215 28.192-11.215 38.05h3.588q0-3.784 2.26-11.892h14.182q2.317 8.108 2.317 11.893zM122.768 114.338v3.588h8.05v34.436h3.617v-34.436h8.05v-3.588zM133.606 229.198q-4.69 0-7.373-1.75-2.683-1.753-3.757-5.51-.65-2.204-.593-12.6.056-9.69.424-11.526 1.497-7.91 11.102-7.91 9.914 0 11.412 7.91l-3.532.678q-.452-2.514-1.977-3.644-1.865-1.356-5.904-1.356-3.928 0-5.65 1.3-1.442 1.1-1.922 3.7-.367 1.808-.367 11.13-.028 9.662.453 11.33.678 2.372 2.175 3.417 1.78 1.243 5.508 1.243 3.758 0 5.453-1.186 1.44-.96 2.146-3.475l3.446.988q-1.102 3.814-3.7 5.537-2.628 1.723-7.346 1.723z" style="line-height:1.25;-inkscape-font-specification:'Hallo sans'" font-size="57.856"/><path d="M209.557 76.5q-3.503 0-6.215-2.004-2.712-2.006-3.673-5.255-.905-3.106-.453-31.44h3.588q-.424 27.74.31 30.452.68 2.26 2.628 3.532 1.723 1.13 3.814 1.13 2.288 0 4.01-1.243 1.696-1.27 2.318-3.418.734-2.712.31-30.453h3.588q.452 28.334-.452 31.44-.96 3.306-3.615 5.284-2.655 1.977-6.158 1.977zM199.962 114.324v38.052h3.588v-19.86h12.57v-3.587h-12.57v-11.02h13.842v-3.586zM201.332 190.51v38.08h18.7v-3.587H204.92V208.73h12.57v-3.615h-12.57v-10.99h13.842v-3.615z" style="line-height:1.25;-inkscape-font-specification:'Hallo sans'" font-size="57.855"/></g></svg>