<svg viewBox="0 0 135.467 135.467"><path d="M13.758 13.758v107.95h107.95V13.76zm3.084 3.084h101.78v101.783H16.843z"/><path d="M38.722 46.19q-1.787 0-2.81-.668-1.02-.666-1.43-2.098-.248-.84-.226-4.8.02-3.69.16-4.39.57-3.014 4.23-3.014 3.778 0 4.348 3.013l-1.345.258q-.174-.955-.755-1.386-.71-.516-2.25-.516-1.495 0-2.152.495-.548.42-.73 1.41-.142.688-.142 4.24-.01 3.68.174 4.316.258.902.828 1.3.678.474 2.1.474 1.43 0 2.075-.452.55-.365.82-1.323.16-.528.17-3.424h-2.474V38.26h3.842v.678q.01 3.69-.226 4.488-.42 1.452-1.41 2.11-1 .655-2.8.655zm3.394 28.786H40.75q0-1.496-1.26-3.896-.743-1.42-2.626-4.283-1.226-1.872-1.733-2.733v10.912h-1.364V60.49h1.366q0 1.174 2.886 5.554 1.96 2.99 2.734 4.498v-10.05h1.366zM36.39 98.113q.905-2.96 2.283-6.63 1.4 3.67 2.313 6.63zm7.254 5.897q0-3.756-4.337-14.496h-1.27q-4.272 10.74-4.272 14.496h1.367q0-1.442.86-4.53h5.403q.883 3.088.883 4.53zM65.42 40.055q.903-2.96 2.28-6.628 1.4 3.67 2.315 6.628zm7.253 5.897q0-3.755-4.337-14.495h-1.27q-4.272 10.74-4.272 14.495h1.366q0-1.44.86-4.53h5.404q.883 3.09.883 4.53zm-8.97 14.54v1.366h3.066v13.118h1.376V61.858h3.066V60.49zm4.128 43.755q-1.785 0-2.807-.667-1.022-.668-1.43-2.1-.25-.838-.227-4.8.02-3.69.16-4.39.572-3.013 4.23-3.013 3.778 0 4.348 3.013l-1.345.26q-.173-.96-.754-1.39-.71-.516-2.25-.516-1.496 0-2.152.495-.55.417-.732 1.41-.14.686-.14 4.24-.01 3.68.174 4.314.258.903.828 1.3.678.475 2.098.475 1.432 0 2.078-.453.548-.366.817-1.324l1.313.377q-.42 1.454-1.41 2.11-1 .656-2.798.656zM96.765 46.076q-1.335 0-2.368-.763-1.033-.764-1.4-2.002-.344-1.18-.172-11.975h1.367q-.162 10.567.118 11.6.26.86 1 1.346.658.43 1.454.43.872 0 1.528-.472.646-.484.883-1.302.28-1.033.118-11.6h1.367q.172 10.793-.172 11.976-.366 1.26-1.378 2.014-1.01.753-2.345.753zm-3.656 14.41V74.98h1.365v-7.564h4.79V66.05h-4.79v-4.2h5.273v-1.365zm.52 29.023v14.504h7.124v-1.366h-5.757v-6.2h4.79V95.07h-4.79v-4.186h5.273V89.51z"/></svg>