<?xml version="1.0" encoding="UTF-8" standalone="no"?>
<svg
   xmlns:dc="http://purl.org/dc/elements/1.1/"
   xmlns:cc="http://creativecommons.org/ns#"
   xmlns:rdf="http://www.w3.org/1999/02/22-rdf-syntax-ns#"
   xmlns:svg="http://www.w3.org/2000/svg"
   xmlns="http://www.w3.org/2000/svg"
   xml:space="preserve"
   style="enable-background:new 0 0 30 30;"
   viewBox="0 0 30 30"
   y="0px"
   x="0px"
   id="Layer_1"
   version="1.1"><metadata
     id="metadata13"><rdf:RDF><cc:Work
         rdf:about=""><dc:format>image/svg+xml</dc:format><dc:type
           rdf:resource="http://purl.org/dc/dcmitype/StillImage" /><dc:title></dc:title></cc:Work></rdf:RDF></metadata><defs
     id="defs11" /><g
     id="g3"><path
       id="path5"
       d="M29,20.5H1c-0.3,0-0.5,0.2-0.5,0.5v0.4c0,1.7,1.4,3.1,3,3.1h9v2H8.6c-1.7,0-3.1,1.1-3.1,2.5c0,0.3,0.2,0.5,0.5,0.5h18   c0,0,0,0,0,0c0.3,0,0.5-0.2,0.5-0.5c0-0.1,0-0.1,0-0.2c-0.1-1.3-1.4-2.3-3.1-2.3h-3.9v-2h9c1.7,0,3-1.4,3-3.1V21   C29.5,20.7,29.3,20.5,29,20.5z" /><path
       id="path7"
       d="m 26.5,0.5 -23,0 c -1.7,0 -3,1.4 -3,3.1 l 0,15.4 c 0,0.3 0.2,0.5 0.5,0.5 l 28,0 c 0.3,0 0.5,-0.2 0.5,-0.5 l 0,-15.4 c 0,-1.7 -1.4,-3.1 -3,-3.1 z" /></g></svg>