<?xml version="1.0" encoding="UTF-8" standalone="no"?>
<svg
   xmlns:dc="http://purl.org/dc/elements/1.1/"
   xmlns:cc="http://creativecommons.org/ns#"
   xmlns:rdf="http://www.w3.org/1999/02/22-rdf-syntax-ns#"
   xmlns:svg="http://www.w3.org/2000/svg"
   xmlns="http://www.w3.org/2000/svg"
   xml:space="preserve"
   style="enable-background:new 0 0 30 30;"
   viewBox="0 0 30 30"
   y="0px"
   x="0px"
   id="Layer_1"
   version="1.1"><metadata
     id="metadata13"><rdf:RDF><cc:Work
         rdf:about=""><dc:format>image/svg+xml</dc:format><dc:type
           rdf:resource="http://purl.org/dc/dcmitype/StillImage" /><dc:title></dc:title></cc:Work></rdf:RDF></metadata><defs
     id="defs11" /><g
     id="g3"><path
       id="path5"
       d="M20.5,7.4l-1.2-6.4c0-0.2-0.3-0.4-0.5-0.4h-7.7c-0.2,0-0.4,0.2-0.5,0.4L9.5,7.4C7,9.1,5.5,12,5.5,15s1.5,5.9,4,7.6l1.2,6.4   c0,0.2,0.3,0.4,0.5,0.4h7.7c0.2,0,0.4-0.2,0.5-0.4l1.2-6.4c2.5-1.8,4-4.6,4-7.6S23,9.1,20.5,7.4z M15,21.5c-3.6,0-6.5-2.9-6.5-6.5   s2.9-6.5,6.5-6.5s6.5,2.9,6.5,6.5S18.6,21.5,15,21.5z" /><path
       id="path7"
       d="M15.5,14.8V11c0-0.3-0.2-0.5-0.5-0.5s-0.5,0.2-0.5,0.5v4c0,0.1,0.1,0.3,0.1,0.4l2,2c0.1,0.1,0.2,0.1,0.4,0.1s0.3,0,0.4-0.1   c0.2-0.2,0.2-0.5,0-0.7L15.5,14.8z" /></g></svg>