<?xml version="1.0" encoding="UTF-8" standalone="no"?>
<svg
   xmlns:dc="http://purl.org/dc/elements/1.1/"
   xmlns:cc="http://creativecommons.org/ns#"
   xmlns:rdf="http://www.w3.org/1999/02/22-rdf-syntax-ns#"
   xmlns:svg="http://www.w3.org/2000/svg"
   xmlns="http://www.w3.org/2000/svg"
   xml:space="preserve"
   style="enable-background:new 0 0 30 30;"
   viewBox="0 0 30 30"
   y="0px"
   x="0px"
   id="Layer_1"
   version="1.1"><metadata
     id="metadata15"><rdf:RDF><cc:Work
         rdf:about=""><dc:format>image/svg+xml</dc:format><dc:type
           rdf:resource="http://purl.org/dc/dcmitype/StillImage" /><dc:title></dc:title></cc:Work></rdf:RDF></metadata><defs
     id="defs13" /><g
     id="g3"><path
       id="path5"
       d="M20.2,7.5C20.2,7.5,20.2,7.5,20.2,7.5L19,1.9c0-0.2-0.3-0.4-0.5-0.4h-7c-0.2,0-0.4,0.2-0.5,0.4L9.8,7.5c0,0,0,0,0,0   c-1.3,0.2-2.3,1.4-2.3,2.8v9.3c0,1.4,1,2.6,2.3,2.8c0,0,0,0,0,0l1.2,5.6c0,0.2,0.3,0.4,0.5,0.4h7c0.2,0,0.4-0.2,0.5-0.4l1.2-5.6   c0,0,0,0,0,0c1.3-0.2,2.3-1.4,2.3-2.8v-9.3C22.5,8.9,21.5,7.8,20.2,7.5z M20.5,20c0,0.3-0.2,0.5-0.5,0.5H10c-0.3,0-0.5-0.2-0.5-0.5   V10c0-0.3,0.2-0.5,0.5-0.5h10c0.3,0,0.5,0.2,0.5,0.5V20z" /><g
       id="g7"><path
         id="path9"
         d="M16,16.5c-0.1,0-0.3,0-0.4-0.1l-1-1c-0.1-0.1-0.1-0.2-0.1-0.4v-3c0-0.3,0.2-0.5,0.5-0.5s0.5,0.2,0.5,0.5v2.8l0.9,0.9    c0.2,0.2,0.2,0.5,0,0.7C16.3,16.5,16.1,16.5,16,16.5z" /></g></g></svg>